# xmcd CD database file
#
# Track frame offsets:
#	150
#	17758
#	32061
#	48511
#	61294
#	77281
#	97292
#	112991
#	124875
#	141317
#	153864
#	170045
#	182330
#	197607
#	215577
#	232805
#	246236
#	262437
#	279965
#	302058
#
# Disc length: 4213 seconds
#
# Revision: 1
# Processed by: cddbd v1.5.1PL2 Copyright (c) Steve Scherf et al.
# Submitted via: CDex 1.51
#
DISCID=19107314
DTITLE=Various Artist - The Heart Of Country [CD3]
DYEAR=1900
DGENRE=
TTITLE0=Judds - Love Can Build A Bridge
TTITLE1=Glen Campbell - Rhinestone Cowboy
TTITLE2=Kenny Rogers - Lucille
TTITLE3=Patsy Cline - I Fall To Pieces
TTITLE4=Rita Coolidge - We're All Alone
TTITLE5=Patty Smyth and Don Henley - Sometimes Love Just Ain't Enough
TTITLE6=Rickie Lee Jones - Chuck E.'s In Love
TTITLE7=England Dan and John Ford Coley - I'd Really Love To See You Tonight
TTITLE8=K.D. Lang - Constant Craving
TTITLE9=Johnny Cash - San Quentin (Live)
TTITLE10=Charlie Daniels - The Devil Went Down To Georgia
TTITLE11=Hank Williams - Your Cheatin' Heart
TTITLE12=Reba McEntire - Whoever's In New England
TTITLE13=Ricki Nelson - Garden Party
TTITLE14=C. W. McCall - Convoy
TTITLE15=John Denver - Country Roads (live)
TTITLE16=Søs Fenger - Even Cowgirls Get The Blues
TTITLE17=Allison Moorer - A Soft Place To Fall
TTITLE18=Lee Ann Womack - I Hope You Dance
TTITLE19=Dolly Parton - I Will Always Love You
EXTD=
EXTT0=
EXTT1=
EXTT2=
EXTT3=
EXTT4=
EXTT5=
EXTT6=
EXTT7=
EXTT8=
EXTT9=
EXTT10=
EXTT11=
EXTT12=
EXTT13=
EXTT14=
EXTT15=
EXTT16=
EXTT17=
EXTT18=
EXTT19=
PLAYORDER=
